<svg width="37" height="36" viewBox="0 0 37 36" fill="none" xmlns="http://www.w3.org/2000/svg">
<path d="M25.3733 9.00003C25.3733 8.86922 25.2673 8.76318 25.1365 8.76318C25.0057 8.76318 24.8997 8.86922 24.8997 9.00003V14.6842C24.8997 14.815 25.0057 14.9211 25.1365 14.9211C25.2673 14.9211 25.3733 14.815 25.3733 14.6842V9.00003Z" stroke="#FFF1FF" stroke-width="0.947368"/>
<path d="M27.9786 12.0789C28.1094 12.0789 28.2155 11.9729 28.2155 11.8421C28.2155 11.7113 28.1094 11.6052 27.9786 11.6052H22.2944C22.1636 11.6052 22.0576 11.7113 22.0576 11.8421C22.0576 11.9729 22.1636 12.0789 22.2944 12.0789H27.9786Z" stroke="#FFF1FF" stroke-width="0.947368"/>
<path d="M18.505 11.8422H11.8734C11.6221 11.8422 11.3812 11.942 11.2035 12.1196C11.0258 12.2973 10.926 12.5383 10.926 12.7895V23.2106C10.926 23.4618 11.0258 23.7028 11.2035 23.8805C11.3812 24.0581 11.6221 24.158 11.8734 24.158H24.1892C24.4404 24.158 24.6814 24.0581 24.8591 23.8805C25.0367 23.7028 25.1366 23.4618 25.1366 23.2106V18.4737" stroke="#FFF1FF" stroke-width="0.947368"/>
<path d="M10.926 13.7368L18.0313 18.9473L21.8208 16.1052" stroke="#FFF1FF" stroke-width="0.947368"/>
</svg>
