<svg width="44" height="26" viewBox="0 0 44 26" fill="none" xmlns="http://www.w3.org/2000/svg">
<path d="M24.8186 13.0002C24.8186 19.9031 19.2627 25.4989 12.4095 25.4989C5.55634 25.4989 0 19.9018 0 13.0002C0 6.09863 5.55592 0.501099 12.4095 0.501099C19.2631 0.501099 24.8186 6.09736 24.8186 13.0002ZM38.4319 13.0002C38.4319 19.4978 35.6539 24.7672 32.2271 24.7672C28.8003 24.7672 26.0223 19.4978 26.0223 13.0002C26.0223 6.50267 28.7999 1.23327 32.2267 1.23327C35.6535 1.23327 38.4314 6.50098 38.4314 13.0002M44 13.0002C44 18.8204 43.0231 23.5416 41.8178 23.5416C40.6124 23.5416 39.636 18.8217 39.636 13.0002C39.636 7.17874 40.6128 2.45888 41.8178 2.45888C43.0227 2.45888 44 7.17832 44 13.0002Z" fill="#3E3D41"/>
</svg>
